<svg width="43" height="25" viewBox="0 0 43 25" fill="none" xmlns="http://www.w3.org/2000/svg">
<path fill-rule="evenodd" clip-rule="evenodd" d="M21.5 17.3117L38.4329 0.429182C38.7201 0.142886 39.0506 0 39.424 0C39.7973 0 40.1279 0.142886 40.4145 0.429182L42.569 2.57719C42.8562 2.86349 43 3.19301 43 3.56472C43 3.93696 42.8562 4.26649 42.569 4.55279L22.491 24.5708C22.2039 24.8571 21.8734 25 21.5 25C21.1266 25 20.7961 24.8571 20.509 24.5708L0.431011 4.55332C0.143322 4.26702 0 3.93749 0 3.56525C0 3.19354 0.143322 2.86401 0.431011 2.57772L2.58445 0.429708C2.87161 0.143413 3.20213 0.000526428 3.57602 0.000526428C3.94885 0.000526428 4.27938 0.143413 4.56654 0.429708L21.5 17.3117Z" fill="#283AD8"/>
</svg>
