<svg width="25" height="43" viewBox="0 0 25 43" fill="none" xmlns="http://www.w3.org/2000/svg">
<path fill-rule="evenodd" clip-rule="evenodd" d="M17.3117 21.5L0.429182 4.56706C0.142886 4.2799 0 3.94938 0 3.57602C0 3.20266 0.142886 2.87213 0.429182 2.5855L2.57719 0.431005C2.86349 0.143844 3.19301 0 3.56472 0C3.93696 0 4.26649 0.143844 4.55279 0.431005L24.5708 20.509C24.8571 20.7961 25 21.1266 25 21.5C25 21.8734 24.8571 22.2039 24.5708 22.491L4.55332 42.569C4.26702 42.8567 3.93749 43 3.56525 43C3.19354 43 2.86401 42.8567 2.57772 42.569L0.429708 40.4156C0.143413 40.1284 0.000526428 39.7979 0.000526428 39.424C0.000526428 39.0511 0.143413 38.7206 0.429708 38.4335L17.3117 21.5Z" fill="#283AD8"/>
</svg>
