<svg width="43" height="25" viewBox="0 0 43 25" fill="none" xmlns="http://www.w3.org/2000/svg">
<path fill-rule="evenodd" clip-rule="evenodd" d="M21.5 7.68833L4.56706 24.5708C4.2799 24.8571 3.94938 25 3.57602 25C3.20266 25 2.87213 24.8571 2.5855 24.5708L0.431005 22.4228C0.143844 22.1365 0 21.807 0 21.4353C0 21.063 0.143844 20.7335 0.431005 20.4472L20.509 0.42918C20.7961 0.142884 21.1266 0 21.5 0C21.8734 0 22.2039 0.142884 22.491 0.42918L42.569 20.4467C42.8567 20.733 43 21.0625 43 21.4347C43 21.8065 42.8567 22.136 42.569 22.4223L40.4156 24.5703C40.1284 24.8566 39.7979 24.9995 39.424 24.9995C39.0511 24.9995 38.7206 24.8566 38.4335 24.5703L21.5 7.68833Z" fill="#283AD8"/>
</svg>
