<svg width="86" height="86" viewBox="0 0 86 86" fill="none" xmlns="http://www.w3.org/2000/svg">
<path fill-rule="evenodd" clip-rule="evenodd" d="M74.0383 42.4308C73.998 42.0402 73.7496 41.6944 73.3868 41.524L32.8589 22.9099C32.4285 22.7043 31.921 22.7862 31.5944 23.1139C31.2678 23.4417 31.1936 23.9434 31.4096 24.3642L40.6042 42.5163L32.4818 60.6685C32.2907 61.0893 32.3944 61.591 32.7404 61.9188C33.0864 62.2465 33.5987 62.3283 34.017 62.1227L73.4454 43.5086C73.8542 43.3117 74.09 42.883 74.0383 42.4308ZM67.7779 41.4515H55.0678H42.3577L34.6377 26.2249L67.7779 41.4515ZM35.9174 58.8558L52.0378 51.2425L68.1582 43.6292H42.738L35.9174 58.8558Z" fill="#283AD8"/>
<path d="M19 33V41H11C11 41 10 41 10 42.5C10 44 11 44 11 44H19V52C19 52 19 53 20.5 53C22 53 22 52 22 52V44H30C30 44 31 44 31 42.5C31 41 30 41 30 41H22V33C22 33 22 32 20.5 32C19 32 19 33 19 33Z" fill="#283AD8"/>
<path fill-rule="evenodd" clip-rule="evenodd" d="M43 86C66.7482 86 86 66.7482 86 43C86 19.2518 66.7482 0 43 0C19.2518 0 0 19.2518 0 43C0 66.7482 19.2518 86 43 86ZM43 83C65.7587 83 83 65.7587 83 43C83 20.2413 65.7587 3 43 3C20.2413 3 3 20.2413 3 43C3 65.7587 20.2413 83 43 83Z" fill="#283AD8"/>
</svg>
