<svg width="42" height="37" viewBox="0 0 42 37" fill="none" xmlns="http://www.w3.org/2000/svg">
<path fill-rule="evenodd" clip-rule="evenodd" d="M20.8146 30.8333H2.05556C0.920304 30.8333 0 29.913 0 28.7778C0 27.6425 0.920304 26.7222 2.05556 26.7222H20.8146C21.7273 23.1759 24.9466 20.5556 28.7778 20.5556C32.609 20.5556 35.8282 23.1759 36.741 26.7222H39.0556C40.1908 26.7222 41.1111 27.6425 41.1111 28.7778C41.1111 29.913 40.1908 30.8333 39.0556 30.8333H36.741C35.8282 34.3796 32.609 37 28.7778 37C24.9466 37 21.7273 34.3796 20.8146 30.8333ZM4.37015 10.2778H2.05556C0.920304 10.2778 0 9.35747 0 8.22222C0 7.08697 0.920304 6.16667 2.05556 6.16667H4.37015C5.2829 2.62037 8.50211 0 12.3333 0C16.1646 0 19.3838 2.62037 20.2965 6.16667H39.0556C40.1908 6.16667 41.1111 7.08697 41.1111 8.22222C41.1111 9.35747 40.1908 10.2778 39.0556 10.2778H20.2965C19.3838 13.8241 16.1646 16.4444 12.3333 16.4444C8.50211 16.4444 5.2829 13.8241 4.37015 10.2778V10.2778ZM12.3333 12.3333C14.6038 12.3333 16.4444 10.4927 16.4444 8.22222C16.4444 5.95172 14.6038 4.11111 12.3333 4.11111C10.0628 4.11111 8.22222 5.95172 8.22222 8.22222C8.22222 10.4927 10.0628 12.3333 12.3333 12.3333ZM28.7778 32.8889C31.0483 32.8889 32.8889 31.0483 32.8889 28.7778C32.8889 26.5073 31.0483 24.6667 28.7778 24.6667C26.5073 24.6667 24.6667 26.5073 24.6667 28.7778C24.6667 31.0483 26.5073 32.8889 28.7778 32.8889Z" fill="#283AD8"/>
</svg>
