<svg width="39" height="38" viewBox="0 0 39 38" fill="none" xmlns="http://www.w3.org/2000/svg">
<path fill-rule="evenodd" clip-rule="evenodd" d="M11.7 0.999999C11.7 0.447714 12.1477 0 12.7 0H26.3C26.8523 0 27.3 0.447715 27.3 1V36.05C27.3 36.6023 26.8523 37.05 26.3 37.05H12.7C12.1477 37.05 11.7 36.6023 11.7 36.05V0.999999ZM0 16.1207C0 15.7944 0.159211 15.4886 0.426538 15.3015L8.5699 9.60111C9.06699 9.25315 9.75 9.60877 9.75 10.2155V36.05C9.75 36.6023 9.30229 37.05 8.75 37.05H1C0.447715 37.05 0 36.6023 0 36.05V16.1207ZM29.4818 19.2219C29.332 19.4016 29.25 19.6281 29.25 19.862V36.05C29.25 36.6023 29.6977 37.05 30.25 37.05H38C38.5523 37.05 39 36.6023 39 36.05V19.862C39 19.6281 38.918 19.4016 38.7682 19.2219L34.7012 14.3414C34.4013 13.9816 33.8487 13.9816 33.5488 14.3414L29.4818 19.2219Z" fill="#283AD8"/>
</svg>
