<svg width="39" height="43" viewBox="0 0 39 43" fill="none" xmlns="http://www.w3.org/2000/svg">
<path d="M20.1938 26H17.8589C7.17675 26 0 32.1353 0 41.2683C0 41.9673 0.567252 42.5345 1.26619 42.5345C1.96512 42.5345 3.5 41.9673 3.5 41.2683C3.5 31.8681 10.7886 29.5 17.8589 29.5H20.1938C27.2648 29.5 34.5 31.8688 34.5 41.2683C34.5 41.9673 36.0889 42.5345 36.7878 42.5345C37.4867 42.5345 38.054 41.9673 38.054 41.2683C38.054 32.1353 30.8766 26 20.1938 26Z" fill="#283AD8"/>
<path d="M29 12C29 17.5228 24.5228 22 19 22C13.4772 22 9 17.5228 9 12C9 6.47715 13.4772 2 19 2C24.5228 2 29 6.47715 29 12Z" stroke="#283AD8" stroke-width="4"/>
</svg>
