<svg width="25" height="43" viewBox="0 0 25 43" fill="none" xmlns="http://www.w3.org/2000/svg">
<path fill-rule="evenodd" clip-rule="evenodd" d="M7.68833 21.5L24.5708 4.56706C24.8571 4.2799 25 3.94938 25 3.57602C25 3.20266 24.8571 2.87213 24.5708 2.5855L22.4228 0.431005C22.1365 0.143844 21.807 0 21.4353 0C21.063 0 20.7335 0.143844 20.4472 0.431005L0.42918 20.509C0.142884 20.7961 0 21.1266 0 21.5C0 21.8734 0.142884 22.2039 0.42918 22.491L20.4467 42.569C20.733 42.8567 21.0625 43 21.4347 43C21.8065 43 22.136 42.8567 22.4223 42.569L24.5703 40.4156C24.8566 40.1284 24.9995 39.7979 24.9995 39.424C24.9995 39.0511 24.8566 38.7206 24.5703 38.4335L7.68833 21.5Z" fill="#283AD8"/>
</svg>
